<?xml version="1.0" encoding="UTF-8" standalone="no"?>
<!-- Created with Inkscape (http://www.inkscape.org/) -->

<svg
   xmlns:dc="http://purl.org/dc/elements/1.1/"
   xmlns:cc="http://creativecommons.org/ns#"
   xmlns:rdf="http://www.w3.org/1999/02/22-rdf-syntax-ns#"
   xmlns:svg="http://www.w3.org/2000/svg"
   xmlns="http://www.w3.org/2000/svg"
   xmlns:sodipodi="http://sodipodi.sourceforge.net/DTD/sodipodi-0.dtd"
   xmlns:inkscape="http://www.inkscape.org/namespaces/inkscape"
   version="1.1"
   width="275"
   height="550"
   id="svg2"
   inkscape:version="0.48.3.1 r9886"
   sodipodi:docname="wq-io.svg">
  <sodipodi:namedview
     pagecolor="#ffffff"
     bordercolor="#666666"
     borderopacity="1"
     objecttolerance="10"
     gridtolerance="10"
     guidetolerance="10"
     inkscape:pageopacity="0"
     inkscape:pageshadow="2"
     inkscape:window-width="816"
     inkscape:window-height="662"
     id="namedview4045"
     showgrid="false"
     inkscape:zoom="0.42909091"
     inkscape:cx="137.5"
     inkscape:cy="275"
     inkscape:window-x="65"
     inkscape:window-y="24"
     inkscape:window-maximized="0"
     inkscape:current-layer="layer1" />
  <defs
     id="defs4">
    <marker
       refX="0"
       refY="0"
       orient="auto"
       id="Arrow2Lstart"
       style="overflow:visible">
      <path
         d="M 8.7185878,4.0337352 -2.2072895,0.01601326 8.7185884,-4.0017078 c -1.7454984,2.3720609 -1.7354408,5.6174519 -6e-7,8.035443 z"
         transform="matrix(1.1,0,0,1.1,1.1,0)"
         id="path4505"
         style="fill-rule:evenodd;stroke-width:0.625;stroke-linejoin:round" />
    </marker>
    <marker
       refX="0"
       refY="0"
       orient="auto"
       id="Arrow2Lend"
       style="overflow:visible">
      <path
         d="M 8.7185878,4.0337352 -2.2072895,0.01601326 8.7185884,-4.0017078 c -1.7454984,2.3720609 -1.7354408,5.6174519 -6e-7,8.035443 z"
         transform="matrix(-1.1,0,0,-1.1,-1.1,0)"
         id="path4508"
         style="fill-rule:evenodd;stroke-width:0.625;stroke-linejoin:round" />
    </marker>
    <marker
       refX="0"
       refY="0"
       orient="auto"
       id="Arrow1Lend"
       style="overflow:visible">
      <path
         d="M 0,0 5,-5 -12.5,0 5,5 0,0 z"
         transform="matrix(-0.8,0,0,-0.8,-10,0)"
         id="path4490"
         style="fill-rule:evenodd;stroke:#000000;stroke-width:1pt" />
    </marker>
    <marker
       refX="0"
       refY="0"
       orient="auto"
       id="TriangleOutL"
       style="overflow:visible">
      <path
         d="m 5.77,0 -8.65,5 0,-10 8.65,5 z"
         transform="scale(0.8,0.8)"
         id="path4629"
         style="fill-rule:evenodd;stroke:#000000;stroke-width:1pt" />
    </marker>
    <marker
       refX="0"
       refY="0"
       orient="auto"
       id="Arrow2Lend-3"
       style="overflow:visible">
      <path
         d="M 8.7185878,4.0337352 -2.2072895,0.01601326 8.7185884,-4.0017078 c -1.7454984,2.3720609 -1.7354408,5.6174519 -6e-7,8.035443 z"
         transform="matrix(-1.1,0,0,-1.1,-1.1,0)"
         id="path4508-7"
         style="fill-rule:evenodd;stroke-width:0.625;stroke-linejoin:round" />
    </marker>
    <marker
       refX="0"
       refY="0"
       orient="auto"
       id="marker9145"
       style="overflow:visible">
      <path
         d="M 8.7185878,4.0337352 -2.2072895,0.01601326 8.7185884,-4.0017078 c -1.7454984,2.3720609 -1.7354408,5.6174519 -6e-7,8.035443 z"
         transform="matrix(-1.1,0,0,-1.1,-1.1,0)"
         id="path9147"
         style="fill-rule:evenodd;stroke-width:0.625;stroke-linejoin:round" />
    </marker>
    <marker
       refX="0"
       refY="0"
       orient="auto"
       id="marker9149"
       style="overflow:visible">
      <path
         d="M 8.7185878,4.0337352 -2.2072895,0.01601326 8.7185884,-4.0017078 c -1.7454984,2.3720609 -1.7354408,5.6174519 -6e-7,8.035443 z"
         transform="matrix(-1.1,0,0,-1.1,-1.1,0)"
         id="path9151"
         style="fill-rule:evenodd;stroke-width:0.625;stroke-linejoin:round" />
    </marker>
  </defs>
  <metadata
     id="metadata7">
    <rdf:RDF>
      <cc:Work
         rdf:about="">
        <dc:format>image/svg+xml</dc:format>
        <dc:type
           rdf:resource="http://purl.org/dc/dcmitype/StillImage" />
        <dc:title />
      </cc:Work>
    </rdf:RDF>
  </metadata>
  <g
     transform="translate(0,-50)"
     id="layer2">
    <g
       transform="translate(-800,-377.36218)"
       id="g9103">
      <path
         d="m 800,664.86218 0,62.5 275,0 0,-62.5 m 0,0 0,-5.4375 c 0,-3.91737 -3.1451,-7.0625 -7.0625,-7.0625 l -260.875,0 c -3.91737,0 -7.0625,3.14513 -7.0625,7.0625 l 0,5.4375"
         id="path5231"
         style="fill:#eeeeff;fill-opacity:1;stroke:#999999;stroke-width:1;stroke-linecap:butt;stroke-linejoin:miter;stroke-miterlimit:4;stroke-opacity:1;stroke-dasharray:none" />
      <rect
         width="275"
         height="75"
         x="800"
         y="727.36218"
         id="rect3926"
         style="fill:#ddffee;fill-opacity:1;stroke:#999999;stroke-width:1;stroke-miterlimit:4;stroke-opacity:1;stroke-dasharray:none" />
      <rect
         width="275"
         height="125"
         ry="0"
         x="800"
         y="802.36218"
         id="rect5235"
         style="fill:#ffffff;fill-opacity:1;stroke:#999999;stroke-width:1;stroke-miterlimit:4;stroke-opacity:1;stroke-dasharray:none" />
      <path
         d="m 800,964.8622 0,-37.50002 275,0 0,37.50002 m 0,0 0,5.43752 c 0,3.9174 -3.1451,7.06248 -7.0625,7.06248 l -260.875,0 c -3.91737,0 -7.0625,-3.14508 -7.0625,-7.06248 l 0,-5.43752"
         id="path3924"
         style="fill:#ececec;stroke:#999999;stroke-width:1;stroke-linecap:butt;stroke-linejoin:miter;stroke-miterlimit:4;stroke-opacity:1;stroke-dasharray:none" />
    </g>
  </g>
  <g
     transform="translate(0,-502.36218)"
     id="layer1">
    <text
       x="34.119362"
       y="1077.9408"
       id="text4990"
       xml:space="preserve"
       style="font-size:40px;font-style:normal;font-weight:normal;text-align:center;line-height:125%;letter-spacing:0px;word-spacing:0px;text-anchor:middle;fill:#000000;fill-opacity:1;stroke:none;font-family:Sans"><tspan
         x="34.119362"
         y="1077.9408"
         id="tspan4992" /></text>
    <g
       transform="translate(-137.46191,107.65356)"
       id="g4141">
      <rect
         width="250"
         height="50"
         ry="0"
         x="149.9619"
         y="707.20862"
         id="rect4147"
         style="fill:#ffffff;fill-opacity:1;stroke:#999999;stroke-width:1;stroke-miterlimit:4;stroke-opacity:1;stroke-dasharray:none" />
      <g
         transform="translate(125,-106.25)"
         id="g8874">
        <rect
           width="112.49999"
           height="50"
           ry="0"
           x="24.961918"
           y="894.70862"
           id="rect4151"
           style="fill:#ffffff;fill-opacity:1;stroke:#999999;stroke-width:1.11803401;stroke-miterlimit:4;stroke-opacity:1;stroke-dasharray:none" />
        <text
           x="87.287354"
           y="923.92981"
           id="text3041"
           xml:space="preserve"
           style="font-size:13px;font-style:normal;font-weight:normal;text-align:center;line-height:125%;letter-spacing:0px;word-spacing:0px;text-anchor:middle;fill:#000000;fill-opacity:1;stroke:none;font-family:Sans"><tspan
             x="87.287354"
             y="923.92981"
             id="tspan3043">GDAL/OGR</tspan></text>
      </g>
      <g
         transform="translate(125,-93.749998)"
         id="g8884">
        <rect
           width="249.99998"
           height="24.999998"
           ry="0"
           x="24.96191"
           y="944.70862"
           id="rect4149"
           style="fill:#ffffff;fill-opacity:1;stroke:#999999;stroke-width:1.11803389;stroke-miterlimit:4;stroke-opacity:1;stroke-dasharray:none" />
        <text
           x="151.03407"
           y="953.7464"
           transform="scale(0.9926113,1.0074437)"
           id="text3045"
           xml:space="preserve"
           style="font-size:12.90394783px;font-style:normal;font-weight:normal;text-align:center;line-height:125%;letter-spacing:0px;word-spacing:0px;text-anchor:middle;fill:#000000;fill-opacity:1;stroke:none;font-family:Sans"><tspan
             x="151.03407"
             y="953.7464"
             id="tspan5091">CSV, JSON, XML libraries</tspan></text>
      </g>
      <text
         x="709.12708"
         y="563.63959"
         transform="translate(-650.03809,519.70862)"
         id="text5093"
         xml:space="preserve"
         style="font-size:40px;font-style:normal;font-weight:normal;text-align:center;line-height:125%;letter-spacing:0px;word-spacing:0px;text-anchor:middle;fill:#000000;fill-opacity:1;stroke:none;font-family:Sans"><tspan
           x="709.12708"
           y="563.63959"
           id="tspan5095" /></text>
      <g
         transform="translate(125,-106.25)"
         id="g8879">
        <rect
           width="112.50001"
           height="50"
           ry="0"
           x="162.46191"
           y="894.70862"
           id="rect5099"
           style="fill:#ffffff;fill-opacity:1;stroke:#999999;stroke-width:1.11803401;stroke-miterlimit:4;stroke-opacity:1;stroke-dasharray:none" />
        <text
           x="212.43335"
           y="924.04407"
           id="text5101"
           xml:space="preserve"
           style="font-size:13px;font-style:normal;font-weight:normal;text-align:center;line-height:125%;letter-spacing:0px;word-spacing:0px;text-anchor:middle;fill:#000000;fill-opacity:1;stroke:none;font-family:Sans"><tspan
             x="212.43335"
             y="924.04407"
             id="tspan5103">xlrd/xlwt</tspan></text>
      </g>
      <rect
         width="250"
         height="50"
         ry="0"
         x="149.96191"
         y="632.20862"
         id="rect8889"
         style="fill:#ffffff;fill-opacity:1;stroke:#999999;stroke-width:1;stroke-miterlimit:4;stroke-opacity:1;stroke-dasharray:none" />
      <text
         x="275.28247"
         y="653.93005"
         id="text3053"
         xml:space="preserve"
         style="font-size:13px;font-style:normal;font-weight:normal;text-align:center;line-height:125%;letter-spacing:0px;word-spacing:0px;text-anchor:middle;fill:#000000;fill-opacity:1;stroke:none;font-family:Sans"><tspan
           x="275.28247"
           y="653.93005"
           id="tspan3057"
           style="font-style:normal">Domain-specific</tspan><tspan
           x="275.28247"
           y="670.18005"
           id="tspan9247"
           style="font-style:normal"> transformation rules</tspan></text>
      <path
         d="m 925,287.5 0,-25"
         transform="translate(-650.03809,419.70862)"
         id="path8893"
         style="fill:none;stroke:#000000;stroke-width:1px;stroke-linecap:butt;stroke-linejoin:miter;stroke-opacity:1;marker-end:url(#Arrow2Lend)" />
      <path
         d="m 274.96191,850.95862 0,-93.75"
         id="path9083"
         style="fill:none;stroke:#000000;stroke-width:1px;stroke-linecap:butt;stroke-linejoin:miter;stroke-opacity:1;marker-end:url(#Arrow2Lend)" />
      <path
         d="m 206.21191,788.45862 0.0176,-31.25"
         id="path9085"
         style="fill:none;stroke:#000000;stroke-width:1px;stroke-linecap:butt;stroke-linejoin:miter;stroke-opacity:1;marker-end:url(#Arrow2Lend)" />
      <g
         transform="translate(125.00003,-37.499998)"
         id="g9087">
        <rect
           width="249.99998"
           height="24.999998"
           ry="0"
           x="24.96191"
           y="944.70862"
           id="rect9089"
           style="fill:#ffffff;fill-opacity:1;stroke:#999999;stroke-width:1.11803389;stroke-miterlimit:4;stroke-opacity:1;stroke-dasharray:none" />
      </g>
      <text
         x="274.8826"
         y="923.29504"
         id="text3037"
         xml:space="preserve"
         style="font-size:13px;font-style:normal;font-weight:normal;text-align:center;line-height:125%;letter-spacing:0px;word-spacing:0px;text-anchor:middle;fill:#000000;fill-opacity:1;stroke:none;font-family:Sans"><tspan
           x="274.8826"
           y="923.29504"
           id="tspan3039">Python</tspan></text>
      <path
         d="m 343.71191,788.45862 0,-31.25"
         id="path9116"
         style="fill:none;stroke:#000000;stroke-width:1px;stroke-linecap:butt;stroke-linejoin:miter;stroke-opacity:1;marker-end:url(#Arrow2Lend)" />
    </g>
    <text
       x="137.51953"
       y="539.86218"
       id="text4015"
       xml:space="preserve"
       style="font-size:40px;font-style:normal;font-weight:normal;text-align:center;line-height:125%;letter-spacing:0px;word-spacing:0px;text-anchor:middle;fill:#000000;fill-opacity:1;stroke:none;font-family:Sans"><tspan
         x="137.51953"
         y="539.86218"
         id="tspan4017">utilization</tspan></text>
    <g
       transform="translate(-666.16301,-150.82406)"
       id="g5138">
      <path
         d="m 845.15313,780.9647 c 0,1.87539 13.68269,3.39993 30.56115,3.39993 16.87846,0 30.56115,-1.52454 30.56115,-3.39993 m -61.1223,0 c 0,1.87539 13.68269,3.39993 30.56115,3.39993 16.87846,0 30.56115,-1.52454 30.56115,-3.39993 m -61.1223,-15.28057 c 0,1.87538 13.68269,3.39993 30.56115,3.39993 16.87846,0 30.56115,-1.52455 30.56115,-3.39993 m -61.1223,-15.28058 c 0,1.87539 13.68269,3.39993 30.56115,3.39993 16.87846,0 30.56115,-1.52454 30.56115,-3.39993 m 0,-15.28057 c 0,1.87538 -13.68269,3.39568 -30.56115,3.39568 -16.87846,0 -30.56115,-1.5203 -30.56115,-3.39568 0,-1.87539 13.68269,-3.39569 30.56115,-3.39569 16.87846,0 30.56115,1.5203 30.56115,3.39569 z m -61.1223,0 0,61.1223 c 0,1.87539 13.68269,3.39993 30.56115,3.39993 16.87846,0 30.56115,-1.52454 30.56115,-3.39993 l 0,-61.1223 c 0,1.87538 -13.68269,3.39993 -30.56115,3.39993 -16.87846,0 -30.56115,-1.52455 -30.56115,-3.39993 z"
         id="path4275"
         style="fill:#ffffff;fill-opacity:1;stroke:#000000;stroke-width:2;stroke-miterlimit:4;stroke-opacity:1;stroke-dasharray:none" />
      <g
         transform="matrix(0.64061202,0,0,0.64061202,265.43444,283.71399)"
         id="g4443"
         style="fill:#ffffff;stroke:#000000;stroke-width:2.70648694;stroke-miterlimit:4;stroke-opacity:1;stroke-dasharray:none">
        <path
           d="m 760,692.36218 20,20 -20,0 z m -60,0 0,100 80,0 0,-80 -20,-20 -60,0 z"
           id="path4429"
           style="fill:#ffffff;stroke:#000000;stroke-width:3.12201452;stroke-linecap:butt;stroke-linejoin:miter;stroke-miterlimit:4;stroke-opacity:1;stroke-dasharray:none" />
        <path
           d="m 750,702.36218 20,20 -20,0 z m -60,0 0,100 80,0 0,-80 -20,-20 -60,0 z"
           id="path4425"
           style="fill:#ffffff;stroke:#000000;stroke-width:3.12201452;stroke-linecap:butt;stroke-linejoin:miter;stroke-miterlimit:4;stroke-opacity:1;stroke-dasharray:none" />
        <path
           d="m 740,712.36218 20,20 -20,0 z m -60,0 0,100 80,0 0,-80 -20,-20 -60,0 z"
           id="path4419"
           style="fill:#ffffff;stroke:#000000;stroke-width:3.12201452;stroke-linecap:butt;stroke-linejoin:miter;stroke-miterlimit:4;stroke-opacity:1;stroke-dasharray:none" />
        <path
           d="m 750,782.36218 -60,0 m 0,-10 60,0 m -20,-30 0,50 m -40,-30 60,0 m -40,-20 0,50 m -20,-40 60,0 m -60,-10 60,0 0,50 -60,0 z"
           id="path4441"
           style="fill:#ffffff;stroke:#000000;stroke-width:0.78050363;stroke-linecap:butt;stroke-linejoin:miter;stroke-miterlimit:4;stroke-opacity:1;stroke-dasharray:none" />
      </g>
      <path
         d="m 799.99152,734.68625 -25,25 25,25 0,-16.65625 8.8125,0 0,16.65625 25,-25 -25,-25 0,16.6875 -8.8125,0 0,-16.6875 z"
         id="path4934"
         style="fill:#eeeeff;fill-opacity:1;stroke:#000000;stroke-opacity:0.46666667000000001;stroke-width:0.5;stroke-miterlimit:4;stroke-dasharray:none" />
    </g>
    <text
       x="124.95312"
       y="696.77625"
       id="text5059"
       xml:space="preserve"
       style="font-size:40px;font-style:normal;font-weight:normal;text-align:center;line-height:125%;letter-spacing:0px;word-spacing:0px;text-anchor:middle;fill:#000000;fill-opacity:1;stroke:none;font-family:Sans"><tspan
         x="124.95312"
         y="696.77625"
         id="tspan5109"
         style="font-size:16px">Interoperability with</tspan><tspan
         x="124.95312"
         y="716.77625"
         id="tspan5113"
         style="font-size:16px">external formats &amp; systems</tspan></text>
    <text
       x="-411.81622"
       y="848.83813"
       transform="scale(-1,1)"
       id="text5128"
       xml:space="preserve"
       style="font-size:24.23777199px;font-style:normal;font-weight:normal;text-align:center;line-height:125%;letter-spacing:0px;word-spacing:0px;text-anchor:middle;fill:#000000;fill-opacity:1;stroke:none;font-family:Sans"><tspan
         x="-411.81622"
         y="848.83813"
         id="tspan5130"
         style="font-size:16.9664402px" /></text>
    <text
       x="652.55853"
       y="749.81897"
       id="text5151"
       xml:space="preserve"
       style="font-size:40px;font-style:normal;font-weight:normal;text-align:center;line-height:125%;letter-spacing:0px;word-spacing:0px;text-anchor:middle;fill:#000000;fill-opacity:1;stroke:none;font-family:Sans"><tspan
         x="652.55853"
         y="749.81897"
         id="tspan5153" /></text>
    <g
       transform="scale(0.9926113,1.0074437)"
       style="font-size:28px;font-style:normal;font-weight:normal;text-align:center;line-height:125%;letter-spacing:0px;word-spacing:0px;text-anchor:middle;fill:#000000;fill-opacity:1;stroke:none;font-family:Sans"
       id="text3049">
      <path
         d="m 95.46249,841.31476 2.24,0 3.304,-10.164 3.332,10.164 2.212,0 5.936,-15.316 -2.016,0 -4.984,12.824 -3.612,-10.948 -1.708,0 -3.612,10.948 -4.872,-12.824 -2.072,0 5.852,15.316"
         style="font-variant:normal;font-stretch:normal;font-family:URW Gothic L;-inkscape-font-specification:URW Gothic L Semi-Bold"
         id="path4858" />
      <path
         d="m 129.98868,825.99876 -2.072,0 0,2.632 c -1.288,-1.96 -3.41601,-2.996 -6.02,-2.996 -4.564,0 -8.064,3.5 -8.064,8.036 0,4.50799 3.556,8.008 8.12,8.008 2.54799,0 4.62,-1.036 5.964,-2.996 l 0,8.008 2.072,0 0,-20.692 m -8.008,1.54 c 3.47199,0 6.076,2.66 6.076,6.216 0,3.35999 -2.68801,6.02 -6.076,6.02 -3.444,0 -6.048,-2.63201 -6.048,-6.076 0,-3.528 2.604,-6.16 6.048,-6.16"
         style="font-variant:normal;font-stretch:normal;font-family:URW Gothic L;-inkscape-font-specification:URW Gothic L Semi-Bold"
         id="path4860" />
      <path
         d="m 134.57061,841.31476 2.072,0 0,-3.528 -2.072,0 0,3.528"
         style="font-variant:normal;font-stretch:normal;font-family:URW Gothic L;-inkscape-font-specification:URW Gothic L Semi-Bold"
         id="path4862" />
      <path
         d="m 141.27224,841.31476 2.072,0 0,-15.316 -2.072,0 0,15.316 m 0,-17.164 2.072,0 0,-3.528 -2.072,0 0,3.528"
         style="font-variant:normal;font-stretch:normal;font-family:URW Gothic L;-inkscape-font-specification:URW Gothic L Semi-Bold"
         id="path4864" />
      <path
         d="m 154.29836,825.63476 c -4.53599,0 -8.036,3.444 -8.036,7.924 0,4.70399 3.44401,8.12 8.204,8.12 4.48,0 7.784,-3.38801 7.784,-7.98 0,-4.676 -3.36,-8.064 -7.952,-8.064 m 0,1.904 c 3.36,0 5.852,2.632 5.852,6.188 0,3.49999 -2.408,6.048 -5.74,6.048 -3.52799,0 -6.048,-2.57601 -6.048,-6.16 0,-3.472 2.54801,-6.076 5.936,-6.076"
         style="font-variant:normal;font-stretch:normal;font-family:URW Gothic L;-inkscape-font-specification:URW Gothic L Semi-Bold"
         id="path4866" />
    </g>
  </g>
</svg>
